/* XPM */
static char *a856a1cae8e7490a8c580fdd253423cbiOAwiUSgB7UN0WRs[] = {
/* columns rows colors chars-per-pixel */
"100 100 2 1 ",
"  c None",
". c black",
/* pixels */
"                                                                                                    ",
"                                                                                                    ",
"                                                                                                    ",
"                                                                                                    ",
"                                                                                                    ",
"                                                                                                    ",
"                                                                                                    ",
"                                                                                                    ",
"                                                                                                    ",
"                                                                                                    ",
"                                                                                                    ",
"                                                                                                    ",
"                                                                                                    ",
"                                                                                                    ",
"                                                                                                    ",
"                                                                                                    ",
"                                                                                                    ",
"                                                                                                    ",
"                                                                                                    ",
"                                                                                                    ",
"                                                                                                    ",
"                                                                                                    ",
"                                   ...........      ........... ............                        ",
"                                  ...........       ..........  ............                        ",
"                                 ...........        .........   ............                        ",
"                                ...........         ........    ............                        ",
"                               ...........          .......     ............                        ",
"                              ...........           ......      ............                        ",
"                             ...........            .....       ............                        ",
"                            ...........             ....        ............                        ",
"                           ...........              ...         ............                        ",
"                          ...........               ..          ............                        ",
"                         ...........                .           ............                        ",
"                        ...........                             ............                        ",
"                       ...........                             ............                         ",
"                      ...........                             ............                          ",
"                     ...........                             ............                           ",
"                    ...........                             ............                            ",
"                   ...........                             ............                             ",
"                  ...........                             ............                              ",
"                 ...........                             ............                               ",
"                ...........                             ............                                ",
"               ...........                             ............                                 ",
"              ...........                             ............                                  ",
"             ...........                             ............                                   ",
"            ...................................     ............                                    ",
"            ...................................     ............           .                        ",
"            ...................................     ............          ..                        ",
"            ...................................     ............         ...                        ",
"            ...................................     ............        ....                        ",
"            ...................................     ............       .....                        ",
"            ...................................     ............      ......                        ",
"            ...................................     ............     .......                        ",
"            ...................................     ............    ........                        ",
"            ...................................     ............   .........                        ",
"                                    ...........     ............  ..........                        ",
"                                    ...........     ............ ...........                        ",
"                                    ...........                                                     ",
"                                    ...........                                                     ",
"                                    ...........                                                     ",
"                                    ...........                                                     ",
"                                    ...........                                                     ",
"                                    ...........                                                     ",
"                                    ...........                                                     ",
"                                    ...........                                                     ",
"                                    ...........                                                     ",
"                                    ...........                                                     ",
"                                                    .                                               ",
"                                                    .                                               ",
"                                                    .      .   .. ...  ...   ....    ..             ",
"                                                    .      .   .. .    . .  .   ..  ...             ",
"                                                    .      .   .  ..  .. . ..    .  . .             ",
"                                                    .      .   .   .. .... ..    . .. ..            ",
"                                                    .     ..   .    . .  . ..   .. .....            ",
"                                                    .     .... . .... ....  ..... ..   .            ",
"                                                    .             .           .                     ",
"                                                    .                                               ",
"                                                    .                                               ",
"                                                                                                    ",
"                                                                                                    ",
"                                                                                                    ",
"                                                                                                    ",
"                                                                                                    ",
"                                                                                                    ",
"                                                                                                    ",
"                                                                                                    ",
"                                                                                                    ",
"                                                                                                    ",
"                                                                                                    ",
"                                                                                                    ",
"                                                                                                    ",
"                                                                                                    ",
"                                                                                                    ",
"                                                                                                    ",
"                                                                                                    ",
"                                                                                                    ",
"                                                                                                    ",
"                                                                                                    ",
"                                                                                                    ",
"                                                                                                    "
};
